<svg xmlns="http://www.w3.org/2000/svg" xmlns:xlink="http://www.w3.org/1999/xlink" viewBox="0 0 811.43 1085.19"><defs><style>.cls-1{fill:none;}.cls-2{fill:#090909;}.cls-3{clip-path:url(#clip-path);}.cls-4{fill:#fbd800;}</style><clipPath id="clip-path"><path class="cls-1" d="M407.62,225.38H141.88A123.08,123.08,0,0,0,18.8,348.46V681.38a123.09,123.09,0,0,0,36.05,87l265.74,265.73a123.07,123.07,0,0,0,174.06,0L760.38,768.41a123.09,123.09,0,0,0,36-87V348.46A123.08,123.08,0,0,0,673.35,225.38Z"/></clipPath></defs><title>PPL Logo</title><g id="Layer_2" data-name="Layer 2"><g id="Layer_1-2" data-name="Layer 1"><path class="cls-2" d="M407.62,225.38H141.88A123.08,123.08,0,0,0,18.8,348.46V681.38a123.09,123.09,0,0,0,36.05,87l265.74,265.73a123.07,123.07,0,0,0,174.06,0L760.38,768.41a123.09,123.09,0,0,0,36-87V348.46A123.08,123.08,0,0,0,673.35,225.38Z"/><g class="cls-3"><path class="cls-4" d="M448.41,543.5a12.93,12.93,0,0,1-5.84,1.62c-.38,0-.78,0-1.18,0l-.86,0L212.44,921l-15.83-15.82L404.55,521.71c-1.87-3.6-2.57-7.08-1.87-10.07L188,906.48,213.8,932.3,451.4,540.72A9.24,9.24,0,0,1,448.41,543.5Z"/><path class="cls-4" d="M409.91,516.61a18.26,18.26,0,0,0,2.24,4.15A19.09,19.09,0,0,1,409.91,516.61Z"/><path class="cls-4" d="M436.08,512.27c-12.67-8.59-25.6-10.52-31.1-4.87a7.75,7.75,0,0,0-1,1.21,8.56,8.56,0,0,0-1.29,3,.17.17,0,0,0,0,.07c-.7,3,0,6.47,1.87,10.07.36.69.76,1.38,1.21,2.08q.27.44.57.87a38,38,0,0,0,3.15,4c.28.32.58.63.88,1s.63.65,1,1a50.81,50.81,0,0,0,5.15,4.46l.92.69c.62.46,1.26.91,1.91,1.35,7.23,4.9,15,7.84,21.23,8.09l.86,0c.4,0,.8,0,1.18,0a12.93,12.93,0,0,0,5.84-1.62,9.24,9.24,0,0,0,3-2.78c.09-.13.17-.26.25-.4l.14-.23a9.59,9.59,0,0,0,1.15-5.11C452.7,528.06,446.42,519.27,436.08,512.27Zm9.9,23.1a2.68,2.68,0,0,1-.38,1.43c-.69,1-2.46,1.28-3.46,1.34-4.95.29-12.2-2.33-18.92-6.89a50,50,0,0,1-5.25-4.07c-.45-.4-.87-.79-1.29-1.19a39.75,39.75,0,0,1-3.25-3.53c-.31-.38-.61-.77-.88-1.14l-.4-.56a18.26,18.26,0,0,1-2.24-4.15,6.89,6.89,0,0,1-.49-2.92,2.83,2.83,0,0,1,.08-.52,1.86,1.86,0,0,1,.28-.64c.58-.87,2.05-1.36,4.13-1.36,4.24,0,11,2,18.25,6.9,9.23,6.24,13.82,13.61,13.82,17.25Z"/><path class="cls-4" d="M530.85,630.71a21.36,21.36,0,0,1-3.3-.27l.58.09L238.73,947.34,228,936.58,490.51,598c-1.26-4.13-1.27-7.81,0-10.75l-270,347.49-1.89,2.43,20.3,20.3L537.34,629.24A13.6,13.6,0,0,1,530.85,630.71Zm4.06-8.31.15-.19a3.32,3.32,0,0,0,.5-.89Z"/><path class="cls-4" d="M527.59,592.93c-10.11-9-21.45-13.54-29.17-11.94a11.94,11.94,0,0,0-2.29.69,10.27,10.27,0,0,0-2.36,1.33,9.28,9.28,0,0,0-1.5,1.37,9.88,9.88,0,0,0-1.78,2.86c-1.25,2.94-1.24,6.62,0,10.75l.09.28c.12.36.24.73.38,1.11.08.21.16.41.23.62l.33.8c2.53,6,7.27,12.24,13.35,17.65s12.86,9.38,19.08,11.19c.66.19,1.3.36,1.93.49.26.06.52.12.78.16l.87.15a21.36,21.36,0,0,0,3.3.27,13.6,13.6,0,0,0,6.49-1.47,10.5,10.5,0,0,0,2.85-2.24,6.26,6.26,0,0,0,.45-.56,9.61,9.61,0,0,0,1.3-2.26c.07-.15.13-.31.19-.47C545,615.85,539.3,603.36,527.59,592.93Zm8,28.38h0a3.32,3.32,0,0,1-.5.89l-.15.19c-1.45,1.55-4.8,1.74-9,.52-5.25-1.53-11.07-5-16.38-9.71s-9.43-10.1-11.56-15.13c-1.72-4.07-1.9-7.45-.48-9.05a3.22,3.22,0,0,1,1.29-.88,7.3,7.3,0,0,1,2.81-.48c5.09,0,13.41,3.45,21.32,10.49C533.39,607.47,537.07,617.29,535.56,621.31Z"/><path class="cls-4" d="M623.19,740.18h-.58a21,21,0,0,1-8-1.75l-341,243.7L261,969.56,585.06,690.39c.18-4.87,1.43-9.1,3.8-12.23.26-.35.54-.68.83-1l-339,292,22.11,22.1L624.33,740.09A10.94,10.94,0,0,1,623.19,740.18Z"/><path class="cls-4" d="M611.45,736.91a17.46,17.46,0,0,0,1.66.86C612.56,737.51,612,737.22,611.45,736.91Z"/><path class="cls-4" d="M637.85,720.32c-.19-7.75-2.91-16.54-7.65-24.75-10.34-17.9-26.68-27.17-37.2-21.09l-.71.44,0,0a13.9,13.9,0,0,0-2.57,2.22c-.29.32-.57.65-.83,1-2.37,3.13-3.62,7.36-3.8,12.23v.05a5.42,5.42,0,0,0,0,.57c-.15,7.87,2.45,17.29,7.61,26.23q.55,1,1.14,1.89c.19.31.39.62.59.93a59.88,59.88,0,0,0,5.74,7.53l.68.75.69.73.69.7c.47.47.94.92,1.41,1.36.23.22.47.43.71.64q.72.65,1.44,1.23l.73.58c.24.2.49.38.73.56.73.55,1.46,1.07,2.2,1.54l.74.47.74.44.56.32c.55.31,1.11.6,1.66.86s1,.47,1.47.67a21,21,0,0,0,8,1.75h.58a10.94,10.94,0,0,0,1.14-.09,13.68,13.68,0,0,0,5.53-1.77C635.22,735.22,638.06,728.83,637.85,720.32Zm-11.49,11.94a7,7,0,0,1-3.41.92h-.32c-6.35,0-16.48-6.6-23.91-19.45a56.62,56.62,0,0,1-3.64-7.52c-.38-1-.73-1.94-1-2.89-.16-.48-.3-1-.44-1.42-.27-.94-.5-1.85-.7-2.75-1.19-5.39-1.1-10.08-.08-13.46.12-.38.25-.74.38-1.08.07-.17.14-.34.22-.5.15-.32.3-.62.47-.91a8.36,8.36,0,0,1,.55-.82,6.78,6.78,0,0,1,2-1.85,7.18,7.18,0,0,1,3.65-.89c6.65,0,16.7,6.8,24,19.42,4.17,7.22,6.55,14.82,6.71,21.42,0,.24,0,.48,0,.72C630.86,726.6,629.23,730.6,626.36,732.26Z"/><path class="cls-4" d="M440.55,472.32a7.36,7.36,0,0,1-1.6-.19l-15.48-3.55a7.19,7.19,0,0,1,3.22-14l15.48,3.56a7,7,0,0,1,2.43,1.06l1.12.77L442.94,472l-1.34.21A7.42,7.42,0,0,1,440.55,472.32Zm-15.47-13.94a3.08,3.08,0,0,0-1.69.49,3.19,3.19,0,0,0,1,5.81l15.35,3.52,1.42-6.21-15.34-3.53A3.53,3.53,0,0,0,425.08,458.38Z"/><path class="cls-4" d="M520.48,490.67a7.54,7.54,0,0,1-1.63-.18l-15.48-3.56a7.16,7.16,0,0,1-3.29-1.75l-.84-.79,2.52-11,1.1-.34a7.05,7.05,0,0,1,3.73-.14l15.48,3.56a7.18,7.18,0,0,1,5.4,8.61h0a7.17,7.17,0,0,1-7,5.58Zm-16.78-7.82a2.81,2.81,0,0,0,.56.18l15.49,3.56a3.18,3.18,0,0,0,3.82-2.39h0a3.2,3.2,0,0,0-2.39-3.83l-15.49-3.55a2.33,2.33,0,0,0-.59-.08Z"/><path class="cls-4" d="M447.25,488.47a9.45,9.45,0,0,1-2.17-.25,9.69,9.69,0,0,1-7.29-11.63l5.28-23A9.71,9.71,0,1,1,462,458l-5.28,23A9.74,9.74,0,0,1,447.25,488.47Zm5.28-38.4A5.72,5.72,0,0,0,447,454.5l-5.28,23A5.7,5.7,0,0,0,452.81,480l5.28-23a5.68,5.68,0,0,0-5.56-7Z"/><path class="cls-4" d="M462.27,491.92A9.7,9.7,0,0,1,452.81,480l5.28-23A9.71,9.71,0,0,1,477,461.4l-5.29,23A9.72,9.72,0,0,1,462.27,491.92Zm5.26-38.4A5.7,5.7,0,0,0,462,458l-5.28,23a5.68,5.68,0,0,0,4.28,6.83,5.72,5.72,0,0,0,6.84-4.28l5.28-23a5.71,5.71,0,0,0-4.28-6.84A5.75,5.75,0,0,0,467.53,453.52Z"/><path class="cls-4" d="M477.28,495.37a9.51,9.51,0,0,1-2.17-.25,9.72,9.72,0,0,1-7.29-11.63l5.29-23A9.7,9.7,0,1,1,492,464.84l-5.28,23A9.73,9.73,0,0,1,477.28,495.37Zm-5.56-11a5.7,5.7,0,0,0,11.12,2.55l5.28-23A5.7,5.7,0,0,0,477,461.39Z"/><path class="cls-4" d="M492.32,498.82a9.69,9.69,0,0,1-9.47-11.88l5.28-23A9.7,9.7,0,1,1,507,468.3l-5.28,23a9.71,9.71,0,0,1-9.44,7.53Zm5.26-38.4a5.7,5.7,0,0,0-5.55,4.43l-5.28,23a5.7,5.7,0,1,0,11.11,2.55l5.28-23a5.7,5.7,0,0,0-4.27-6.84A6.29,6.29,0,0,0,497.58,460.42Z"/><path class="cls-4" d="M664.58,610.29l-1.05-.85a6.82,6.82,0,0,1-1.71-2L654,593.6a7.18,7.18,0,0,1,8.17-10.47,7.09,7.09,0,0,1,4.34,3.38l7.84,13.82a7.25,7.25,0,0,1,.85,2.51l.18,1.35Zm-4.35-23.42a3.19,3.19,0,0,0-2.77,4.76l7.77,13.7,5.55-3.14L663,588.48a3.17,3.17,0,0,0-1.92-1.5A3.12,3.12,0,0,0,660.23,586.87Z"/><path class="cls-4" d="M708.5,682.4a7.27,7.27,0,0,1-6.27-3.65l-7.83-13.82a7.18,7.18,0,0,1-.93-3.62v-1.15l9.82-5.55,1,.57a7.19,7.19,0,0,1,2.62,2.66l7.83,13.82a7.2,7.2,0,0,1-6.24,10.74Zm-10.87-20a3.32,3.32,0,0,0,.25.54l7.83,13.83a3.2,3.2,0,0,0,4.35,1.2h0a3.2,3.2,0,0,0,1.2-4.35l-7.83-13.82a2.85,2.85,0,0,0-.34-.49Z"/><path class="cls-4" d="M662.54,627.73a9.71,9.71,0,0,1-4.8-18.16l20.53-11.63a9.71,9.71,0,1,1,9.57,16.89l-20.53,11.63A9.65,9.65,0,0,1,662.54,627.73ZM683,600.68a5.69,5.69,0,0,0-2.8.74l-20.53,11.63a5.71,5.71,0,1,0,5.63,9.93l20.52-11.63A5.71,5.71,0,0,0,683,600.68Z"/><path class="cls-4" d="M670.14,641.13a9.7,9.7,0,0,1-4.8-18.15l20.52-11.63a9.71,9.71,0,0,1,9.57,16.89l-20.52,11.63A9.7,9.7,0,0,1,670.14,641.13Zm20.5-27a5.69,5.69,0,0,0-2.8.74l-20.53,11.63a5.7,5.7,0,0,0-2.15,7.78,5.71,5.71,0,0,0,7.77,2.15l20.53-11.63a5.7,5.7,0,0,0-2.82-10.67Z"/><path class="cls-4" d="M677.73,654.54a9.7,9.7,0,0,1-4.8-18.15l20.53-11.63A9.7,9.7,0,1,1,703,641.64L682.5,653.27A9.63,9.63,0,0,1,677.73,654.54Zm20.5-27a5.59,5.59,0,0,0-2.8.74l-20.52,11.63a5.7,5.7,0,1,0,5.62,9.92l20.52-11.63a5.7,5.7,0,0,0-2.82-10.66Z"/><path class="cls-4" d="M685.33,668a9.71,9.71,0,0,1-4.8-18.15l20.53-11.63a9.72,9.72,0,0,1,13.23,3.66,9.69,9.69,0,0,1-3.67,13.22L690.1,666.68A9.65,9.65,0,0,1,685.33,668Zm20.51-27.05a5.71,5.71,0,0,0-2.81.75l-20.52,11.63a5.7,5.7,0,1,0,5.62,9.92l20.52-11.63a5.71,5.71,0,0,0-2.81-10.67Z"/></g><path class="cls-4" d="M407.62,1085.19A137.17,137.17,0,0,1,310,1044.75L44.25,779A137.19,137.19,0,0,1,3.8,681.38V348.46c0-76.14,62-138.08,138.08-138.08H673.35c76.14,0,138.08,61.94,138.08,138.08V681.38A137.18,137.18,0,0,1,771,779L505.25,1044.75A137.16,137.16,0,0,1,407.62,1085.19ZM141.88,240.38A108.2,108.2,0,0,0,33.8,348.46V681.38A107.37,107.37,0,0,0,65.46,757.8l265.73,265.74a108.1,108.1,0,0,0,152.85,0L749.77,757.8a107.33,107.33,0,0,0,31.66-76.42V348.46A108.2,108.2,0,0,0,673.35,240.38Z"/><path class="cls-4" d="M774.87,168.94v58.7a23.64,23.64,0,0,0,6.93,16.72l15,15a23.64,23.64,0,0,1,6.93,16.72v6.42a23.65,23.65,0,0,1-23.65,23.64H23.65A23.65,23.65,0,0,1,0,282.52v-7.44a23.64,23.64,0,0,1,6.93-16.72l14-14a23.64,23.64,0,0,0,6.93-16.72v-58.7a23.65,23.65,0,0,0-7.59-17.36L7.59,139.85A23.65,23.65,0,0,1,0,122.49V108.4A23.65,23.65,0,0,1,23.65,84.75H133.28A23.65,23.65,0,0,0,156.93,61.1V23.65A23.65,23.65,0,0,1,180.58,0H623.17a23.65,23.65,0,0,1,23.65,23.65V61.1a23.65,23.65,0,0,0,23.65,23.65H780.1a23.65,23.65,0,0,1,23.65,23.65v13.15a23.65,23.65,0,0,1-7.59,17.36l-13.7,12.67A23.65,23.65,0,0,0,774.87,168.94Z"/><rect class="cls-2" x="173.97" y="17.25" width="455.43" height="67.5" rx="19.5" ry="19.5"/><path class="cls-4" d="M217.37,36.92a7.71,7.71,0,0,1,2.52,6A7.73,7.73,0,0,1,217.37,49a9.6,9.6,0,0,1-6.65,2.25H204.4V61.93h-3.3V34.67h9.62A9.6,9.6,0,0,1,217.37,36.92Zm-2.46,10A4.87,4.87,0,0,0,216.42,43a4.86,4.86,0,0,0-1.51-3.9,7,7,0,0,0-4.68-1.3H204.4V48.18h5.83A7.07,7.07,0,0,0,214.91,46.88Z"/><path class="cls-4" d="M273.3,50.62h-6.53V61.93h-3.3V34.67H273.8a10,10,0,0,1,6.69,2.15A7.25,7.25,0,0,1,283,42.64a7.51,7.51,0,0,1-1.61,4.88A8.21,8.21,0,0,1,277,50.24l7.68,11.69h-3.92Zm-6.53-3.1h7q5.78,0,5.78-4.88t-5.78-4.87h-7Z"/><path class="cls-4" d="M343.44,54.37H331.09l-2.89,7.56h-3.47l10.61-27.26h3.93l10.57,27.26h-3.51Zm-1.2-3.09-3.67-9.67-1.28-3.8h-.09L336,41.49l-3.72,9.79Z"/><path class="cls-4" d="M413.83,48.18V61.93h-2.48l-.12-3.67a7.81,7.81,0,0,1-3.37,3,11.92,11.92,0,0,1-5.23,1.06,12.67,12.67,0,0,1-6.69-1.72,11.38,11.38,0,0,1-4.4-4.87A16.81,16.81,0,0,1,390,48.3a16.43,16.43,0,0,1,1.59-7.43,11.61,11.61,0,0,1,4.47-4.9,12.76,12.76,0,0,1,6.67-1.71,13.09,13.09,0,0,1,6.67,1.53,11,11,0,0,1,4.23,4.7l-3,1.66a7.08,7.08,0,0,0-3-3.56,9.39,9.39,0,0,0-4.93-1.23,8.89,8.89,0,0,0-4.86,1.32,8.73,8.73,0,0,0-3.24,3.78,13.61,13.61,0,0,0-1.16,5.84q0,5.21,2.4,8.08a8.5,8.5,0,0,0,6.9,2.87,8.94,8.94,0,0,0,5.8-1.82,6.3,6.3,0,0,0,2.25-5.2v-.95h-8.67v-3.1Z"/><path class="cls-4" d="M467.32,51.28V61.93H464V51.28l-9.75-16.61h3.92l7.48,13.22,7.48-13.22h3.92Z"/><path class="cls-4" d="M531.76,54.37H519.41l-2.89,7.56h-3.47l10.62-27.26h3.92l10.57,27.26h-3.51Zm-1.2-3.09-3.67-9.67-1.28-3.8h-.09l-1.19,3.68-3.72,9.79Z"/><path class="cls-4" d="M602.27,61.93h-4.09l-11.4-18.25-2.89-5.37h0l.16,4.37V61.93h-3.13V34.67H585l11.36,18.18,2.94,5.45h0l-.17-4.38V34.67h3.14Z"/><path class="cls-2" d="M154,153.35A49.24,49.24,0,0,1,149,176a45.26,45.26,0,0,1-13.9,16.33,60,60,0,0,1-19.27,9.46,80.74,80.74,0,0,1-22.27,3H75.16v49.62a17.55,17.55,0,0,0,1.33,7.09q1.32,3.06,5.48,4.68a35.74,35.74,0,0,0,7.33,1.5,94.17,94.17,0,0,0,9.63.81v8.19H28.66v-8.19q2.78-.24,8-.81A28.15,28.15,0,0,0,44,266.2a9.92,9.92,0,0,0,5-4.39,15.41,15.41,0,0,0,1.56-7.38V136.27A21.43,21.43,0,0,0,49.43,129c-.77-2.16-2.58-3.77-5.42-4.85A49.6,49.6,0,0,0,35.3,122q-4.34-.63-7.44-.86V113h74.76q22.86,0,37.1,11T154,153.35Zm-35.08,27.92a30.94,30.94,0,0,0,5.2-11.48,52,52,0,0,0,1.27-10.67,59.8,59.8,0,0,0-1.56-13.38,31.16,31.16,0,0,0-5.37-11.89,26.88,26.88,0,0,0-10.61-8.42q-6.58-3-16.39-3H75.16v72.34H86.93q12.46,0,20.25-3.86A29.66,29.66,0,0,0,118.89,181.27Z"/><path class="cls-2" d="M255.81,200.64H232.2q-7.84-12.3-14.17-21.25T204.3,160.91h-9v27.81a10,10,0,0,0,.68,3.8,4.77,4.77,0,0,0,2.91,2.5,19.07,19.07,0,0,0,3.89.8,47,47,0,0,0,4.69.43v4.39H170.42v-4.39c1-.08,2.42-.22,4.3-.43a14.55,14.55,0,0,0,3.92-.8,5.35,5.35,0,0,0,2.69-2.35,8.35,8.35,0,0,0,.83-3.95v-63.4a11.07,11.07,0,0,0-.62-3.83,4.55,4.55,0,0,0-2.9-2.53,27,27,0,0,0-4-1,39.4,39.4,0,0,0-4.2-.59V113h40.47a45.76,45.76,0,0,1,10.44,1.14,28.06,28.06,0,0,1,8.84,3.68,18.63,18.63,0,0,1,6.12,6.45,19.06,19.06,0,0,1,2.28,9.61,24.17,24.17,0,0,1-1.54,9,18.45,18.45,0,0,1-4.58,6.73,27.08,27.08,0,0,1-6.67,4.61,50.67,50.67,0,0,1-8.59,3.3q6.5,8.6,10.79,14.46t10.53,14.27a29.3,29.3,0,0,0,4.91,5.47,26.12,26.12,0,0,0,4.36,2.87,14.84,14.84,0,0,0,4,1.24,29.61,29.61,0,0,0,4,.49Zm-32.5-65.33q0-8-4.57-12.62T205.83,118H195.32V155.6h8.1a19.71,19.71,0,0,0,14.21-5.46Q223.32,144.68,223.31,135.31Z"/><path class="cls-2" d="M339.24,174.81l-1.66,25.83H264.79v-4.39c1.24-.08,2.89-.25,4.95-.52a16.79,16.79,0,0,0,4-.84,5.56,5.56,0,0,0,2.75-2.41,8,8,0,0,0,.77-3.76v-63a8.94,8.94,0,0,0-.68-3.61,5.25,5.25,0,0,0-2.84-2.56,20.46,20.46,0,0,0-4.48-1.42,33.56,33.56,0,0,0-4.48-.75V113h67.84V134.1H328a28.6,28.6,0,0,0-5.35-10q-4.11-5.28-7.81-5.78c-1.28-.16-2.8-.29-4.57-.37s-3.79-.12-6.06-.12H290.43v34.84h9.89a19.7,19.7,0,0,0,6.95-.89,9.56,9.56,0,0,0,3.86-3,15.84,15.84,0,0,0,2.32-4.79,30.13,30.13,0,0,0,1.27-5.65h4.63v34.35h-4.63a28.09,28.09,0,0,0-1.33-6.27,16.12,16.12,0,0,0-2.26-4.79,9,9,0,0,0-4.35-3.15,23.06,23.06,0,0,0-6.46-.74h-9.89V184a27.5,27.5,0,0,0,.56,6.23,5.77,5.77,0,0,0,2.16,3.45,9.14,9.14,0,0,0,4.39,1.51,68.83,68.83,0,0,0,7.91.34h5.37a55.37,55.37,0,0,0,5.63-.24,34.46,34.46,0,0,0,4.85-.9,7.43,7.43,0,0,0,3.55-1.76,39.58,39.58,0,0,0,6-9,60.94,60.94,0,0,0,4-8.87Z"/><path class="cls-2" d="M460.06,200.64H421.32v-4.39c1.4,0,3.2-.18,5.41-.43a13.86,13.86,0,0,0,4.54-1,8.1,8.1,0,0,0,2.81-2.69,7.42,7.42,0,0,0,.89-3.8V124.52h-.92l-29.91,74.7h-3.09L372.57,123h-.8v52.33a53,53,0,0,0,1,11.55,10.75,10.75,0,0,0,2.94,5.69c.91.86,2.78,1.69,5.62,2.47a33.94,33.94,0,0,0,5.56,1.23v4.39h-35.4v-4.39a45.36,45.36,0,0,0,5.84-.92,11.55,11.55,0,0,0,4.73-2,9,9,0,0,0,3-5.32,61.43,61.43,0,0,0,.8-12V131.13a18.36,18.36,0,0,0-.92-6.36,10,10,0,0,0-2.66-4,12.27,12.27,0,0,0-4.7-2.47,24.27,24.27,0,0,0-5.49-.93V113h29.89L407,178.77l21.44-55.05a55.7,55.7,0,0,0,2-6.33,30.22,30.22,0,0,0,.89-4.42h28.59v4.38a31.44,31.44,0,0,0-4.41.56,29,29,0,0,0-3.93.93,4.53,4.53,0,0,0-2.84,2.47,9.53,9.53,0,0,0-.74,3.77v63.2a8.19,8.19,0,0,0,.74,3.65,6.32,6.32,0,0,0,2.84,2.59,14.12,14.12,0,0,0,4,1.15,32.58,32.58,0,0,0,4.51.58Z"/><path class="cls-2" d="M516.49,200.64H477v-4.39l4.82-.37a17.63,17.63,0,0,0,4.45-.74,6.14,6.14,0,0,0,3-2.19,7,7,0,0,0,.92-3.86V125.57a8.4,8.4,0,0,0-.68-3.61,5.51,5.51,0,0,0-3.21-2.44,31.68,31.68,0,0,0-4.66-1.39,31.07,31.07,0,0,0-4.61-.78V113h39.48v4.38a39.35,39.35,0,0,0-4.57.47,32,32,0,0,0-4.63,1,4.81,4.81,0,0,0-3.15,2.41,8.33,8.33,0,0,0-.81,3.7v63.46a7.14,7.14,0,0,0,.9,3.61,6.1,6.1,0,0,0,3.06,2.5,28.71,28.71,0,0,0,4.23,1.08,29.78,29.78,0,0,0,5,.65Z"/><path class="cls-2" d="M607.53,174.81l-1.67,25.83H533.08v-4.39c1.23-.08,2.88-.25,4.94-.52a16.79,16.79,0,0,0,4-.84,5.58,5.58,0,0,0,2.74-2.41,8,8,0,0,0,.78-3.76v-63a9.11,9.11,0,0,0-.68-3.61,5.29,5.29,0,0,0-2.84-2.56,20.83,20.83,0,0,0-4.48-1.42,34.09,34.09,0,0,0-4.48-.75V113h67.84V134.1h-4.64a28.39,28.39,0,0,0-5.34-10q-4.11-5.28-7.82-5.78c-1.28-.16-2.8-.29-4.57-.37s-3.79-.12-6.06-.12H558.72v34.84h9.88a19.7,19.7,0,0,0,6.95-.89,9.56,9.56,0,0,0,3.86-3,15.84,15.84,0,0,0,2.32-4.79,30.13,30.13,0,0,0,1.27-5.65h4.63v34.35H583a28.09,28.09,0,0,0-1.33-6.27,15.88,15.88,0,0,0-2.26-4.79,8.91,8.91,0,0,0-4.35-3.15,23.06,23.06,0,0,0-6.46-.74h-9.88V184a27.6,27.6,0,0,0,.55,6.23,5.74,5.74,0,0,0,2.17,3.45,9.1,9.1,0,0,0,4.38,1.51,69,69,0,0,0,7.91.34h5.38a55.29,55.29,0,0,0,5.62-.24,34.46,34.46,0,0,0,4.85-.9,7.38,7.38,0,0,0,3.55-1.76,39.25,39.25,0,0,0,6-9,60.94,60.94,0,0,0,4-8.87Z"/><path class="cls-2" d="M780.34,276.7H736.25q-14.64-23-26.46-39.69t-25.64-34.5H667.38v51.92a18.28,18.28,0,0,0,1.27,7.09q1.26,3.06,5.42,4.68a35.4,35.4,0,0,0,7.27,1.5q5.19.69,8.77.81v8.19H620.88v-8.19q2.76-.24,8-.81a28.05,28.05,0,0,0,7.33-1.5,9.92,9.92,0,0,0,5-4.39,15.41,15.41,0,0,0,1.56-7.38V136a20.5,20.5,0,0,0-1.16-7.15c-.77-2.08-2.57-3.65-5.42-4.73a49.25,49.25,0,0,0-7.5-1.9,69.88,69.88,0,0,0-7.84-1.1V113h75.57A85.45,85.45,0,0,1,716,115.1a52.49,52.49,0,0,1,16.5,6.87A34.64,34.64,0,0,1,743.88,134q4.26,7.46,4.27,17.95a45.22,45.22,0,0,1-2.89,16.73,34.39,34.39,0,0,1-8.54,12.57,50.43,50.43,0,0,1-12.46,8.6,94.75,94.75,0,0,1-16,6.17q12.12,16.05,20.14,27T748,249.7a54.78,54.78,0,0,0,9.17,10.21,48,48,0,0,0,8.14,5.36,27.94,27.94,0,0,0,7.5,2.31,56.54,56.54,0,0,0,7.5.93Zm-60.69-122q0-14.85-8.54-23.55T687,122.43H667.38v70.15h15.11q15.93,0,26.54-10.19T719.65,154.68Z"/><path class="cls-2" d="M192.29,269.76V276h-32V231.1h7.28v38.66Z"/><path class="cls-2" d="M268.51,269.76V276H235V231.1h32.53v6.26H242.31v12.93h19.74v6.13H242.31v13.34Z"/><path class="cls-2" d="M337.72,264.24H318.8L314.52,276H307l17-44.92h8.71L349.63,276h-7.69Zm-2.17-5.92-5.18-14.43-2-6.46h-.2l-1.91,6.33-5.31,14.56Z"/><path class="cls-2" d="M427.69,252.81V276h-5.37l-.21-5.72a13,13,0,0,1-5.44,4.73,19.05,19.05,0,0,1-8.3,1.67,21,21,0,0,1-11-2.79,18.73,18.73,0,0,1-7.28-8,27.4,27.4,0,0,1-2.59-12.35,26.89,26.89,0,0,1,2.65-12.29,19.2,19.2,0,0,1,7.49-8,21.88,21.88,0,0,1,11.23-2.82q6.94,0,11.43,2.59a17.57,17.57,0,0,1,7.08,8l-6.67,3.19a10.42,10.42,0,0,0-4.35-5.58,13.77,13.77,0,0,0-7.35-1.9,12.57,12.57,0,0,0-10.14,4.42q-3.75,4.43-3.75,12.39t3.58,12.49q3.57,4.38,10.44,4.39a13.55,13.55,0,0,0,8.71-2.66q3.35-2.65,3.34-7.69V258.8H407.48v-6Z"/><path class="cls-2" d="M509.5,258.8q0,8.85-4.7,13.37t-13.68,4.53q-9,0-13.68-4.53t-4.69-13.37V231.1h7.35v26.81q0,6.4,2.69,9.43t8.33,3q5.65,0,8.34-3t2.69-9.43V231.1h7.35Z"/><path class="cls-2" d="M589.73,269.76V276H556.25V231.1h32.53v6.26H563.53v12.93h19.74v6.13H563.53v13.34Z"/><path class="cls-4" d="M157.32,709.39a113,113,0,1,1,79.92-33.1A112.27,112.27,0,0,1,157.32,709.39Zm0-213.88A100.87,100.87,0,1,0,258.19,596.38,101,101,0,0,0,157.32,495.51Z"/><path class="cls-4" d="M61.15,643.87l-.5-2.38s.82-.17,2.3-.56l.62,2.35C62,643.68,61.19,643.86,61.15,643.87Z"/><path class="cls-4" d="M68.22,641.94l-.71-2.32c1.47-.46,3-1,4.53-1.48l.79,2.3C71.26,641,69.71,641.48,68.22,641.94Zm9.16-3.13-.85-2.28c1.48-.55,3-1.13,4.45-1.73l.91,2.26C80.39,637.66,78.88,638.25,77.38,638.81Zm9-3.62-1-2.23c1.45-.62,2.92-1.28,4.36-1.94l1,2.21C89.3,633.9,87.81,634.56,86.35,635.19Zm8.77-4L94.05,629c1.42-.7,2.86-1.42,4.27-2.15L99.43,629C98,629.73,96.56,630.46,95.12,631.16Zm8.57-4.43-1.16-2.14c1.39-.75,2.79-1.54,4.16-2.33l1.21,2.11C106.51,625.17,105.1,626,103.69,626.73Zm8.37-4.81-1.26-2.08c1.36-.82,2.73-1.66,4.06-2.51l1.3,2C114.81,620.24,113.43,621.09,112.06,621.92Zm8.15-5.17-1.35-2c1.32-.88,2.64-1.78,3.94-2.69l1.39,2C122.88,615,121.54,615.86,120.21,616.75Zm7.91-5.52-1.44-2c1.28-.94,2.57-1.9,3.82-2.86l1.48,1.93C130.71,609.31,129.41,610.28,128.12,611.23Zm7.66-5.87-1.52-1.89c1.24-1,2.48-2,3.69-3l1.56,1.86C138.28,603.33,137,604.36,135.78,605.36Zm7.39-6.19-1.6-1.83c1.19-1,2.39-2.11,3.56-3.18l1.64,1.79C145.58,597,144.37,598.12,143.17,599.17Zm7.12-6.51-1.68-1.76c1.15-1.09,2.29-2.22,3.41-3.33l1.72,1.72C152.61,590.42,151.45,591.55,150.29,592.66Zm6.82-6.82-1.75-1.68c1.09-1.14,2.19-2.31,3.26-3.48l1.79,1.64C159.33,583.5,158.22,584.69,157.11,585.84Zm6.52-7.11-1.83-1.6c1-1.18,2.09-2.4,3.11-3.62l1.86,1.56C165.74,576.3,164.68,577.54,163.63,578.73Zm6.2-7.38-1.89-1.52c1-1.23,2-2.49,2.94-3.75l1.93,1.48C171.83,568.83,170.83,570.11,169.83,571.35Zm5.88-7.65-2-1.44c.94-1.27,1.87-2.57,2.78-3.87l2,1.4C177.6,561.1,176.65,562.41,175.71,563.7Zm5.54-7.89-2-1.35c.88-1.31,1.76-2.65,2.62-4l2,1.31C183,553.14,182.14,554.49,181.25,555.81Zm5.2-8.11-2.07-1.27c.83-1.35,1.65-2.73,2.45-4.09l2.1,1.22C188.12,544.94,187.29,546.34,186.45,547.7Zm4.87-8.32-2.13-1.19c.77-1.38,1.54-2.79,2.28-4.19l2.15,1.14C192.87,536.56,192.09,538,191.32,539.38Zm4.52-8.52-2.17-1.09c.71-1.41,1.42-2.85,2.11-4.28l2.19,1C197.27,528,196.56,529.45,195.84,530.86Zm4.18-8.68-2.21-1c.65-1.43,1.31-2.9,1.94-4.36l2.23,1C201.34,519.26,200.68,520.74,200,522.18Zm3.84-8.84-2.25-.92c.61-1.46,1.21-2.95,1.78-4.43l2.27.88C205.07,510.37,204.47,511.87,203.86,513.34Z"/><path class="cls-4" d="M207.36,504.38l-2.27-.84c.27-.75.55-1.51.82-2.27l2.29.82C207.92,502.86,207.65,503.62,207.36,504.38Z"/><path class="cls-4" d="M68.63,651.34,68.12,649s.82-.18,2.3-.57l.62,2.35C69.5,651.16,68.66,651.34,68.63,651.34Z"/><path class="cls-4" d="M75.7,649.41,75,647.09c1.47-.45,3-1,4.54-1.48l.78,2.3C78.74,648.45,77.19,649,75.7,649.41Zm9.16-3.13L84,644c1.47-.56,3-1.14,4.44-1.73l.91,2.25C87.87,645.13,86.35,645.72,84.86,646.28Zm9-3.61-1-2.23c1.44-.62,2.91-1.28,4.35-2l1,2.21C96.76,641.38,95.28,642,93.82,642.67Zm8.77-4-1.06-2.18c1.42-.7,2.86-1.42,4.26-2.14l1.12,2.16C105.49,637.2,104,637.93,102.59,638.63Zm8.58-4.43L110,632.07c1.39-.76,2.79-1.54,4.17-2.33l1.21,2.11C114,632.64,112.57,633.44,111.17,634.2Zm8.37-4.8-1.26-2.08c1.36-.82,2.72-1.67,4.06-2.52l1.3,2.06C122.29,627.71,120.91,628.57,119.54,629.4Zm8.14-5.17-1.34-2c1.31-.87,2.64-1.78,3.94-2.69l1.39,2C130.35,622.42,129,623.34,127.68,624.23Zm7.91-5.53-1.43-2c1.28-.93,2.56-1.9,3.82-2.86l1.47,1.93C138.19,616.78,136.89,617.76,135.59,618.7Zm7.66-5.86-1.52-1.9c1.24-1,2.49-2,3.69-3l1.56,1.86C145.76,610.81,144.51,611.83,143.25,612.84Zm7.4-6.19-1.6-1.83c1.19-1,2.38-2.11,3.55-3.18l1.64,1.79C153.06,604.51,151.85,605.59,150.65,606.65Zm7.11-6.52-1.68-1.75c1.15-1.1,2.3-2.22,3.42-3.34l1.71,1.72C160.08,597.89,158.92,599,157.76,600.13Zm6.83-6.81-1.76-1.68c1.1-1.15,2.19-2.32,3.26-3.48l1.79,1.64C166.8,591,165.69,592.16,164.59,593.32Zm6.51-7.11-1.82-1.6c1-1.19,2.09-2.41,3.1-3.62l1.86,1.56C173.22,583.77,172.16,585,171.1,586.21Zm6.2-7.39-1.89-1.52c1-1.23,2-2.49,3-3.75l1.92,1.48C179.31,576.31,178.3,577.58,177.3,578.82Zm5.88-7.64-2-1.44c.94-1.28,1.88-2.58,2.79-3.87l2,1.39C185.07,568.57,184.13,569.89,183.18,571.18Zm5.54-7.89-2-1.36c.87-1.3,1.75-2.64,2.61-4l2.05,1.31C190.5,560.61,189.61,562,188.72,563.29Zm5.21-8.12-2.07-1.27c.82-1.34,1.65-2.72,2.45-4.09L196.4,551C195.6,552.42,194.76,553.81,193.93,555.17Zm4.86-8.32-2.12-1.18c.77-1.38,1.54-2.79,2.28-4.19l2.15,1.14C200.34,544,199.57,545.46,198.79,546.85Zm4.52-8.51-2.16-1.1c.71-1.4,1.42-2.84,2.11-4.28l2.19,1.06C204.75,535.47,204,536.92,203.31,538.34Zm4.18-8.68-2.21-1c.66-1.44,1.31-2.9,1.95-4.36l2.23,1C208.82,526.73,208.15,528.21,207.49,529.66Zm3.85-8.84-2.25-.93c.6-1.46,1.2-2.95,1.78-4.43l2.26.89C212.55,517.84,211.94,519.34,211.34,520.82Z"/><path class="cls-4" d="M214.84,511.86l-2.28-.84c.28-.76.56-1.52.83-2.28l2.29.83Z"/><path class="cls-4" d="M107.73,690.45l-.51-2.38s.82-.18,2.3-.57l.62,2.35C108.6,690.26,107.76,690.44,107.73,690.45Z"/><path class="cls-4" d="M114.8,688.51l-.72-2.32c1.47-.45,3-1,4.54-1.48l.78,2.3C117.84,687.55,116.29,688.05,114.8,688.51Zm9.16-3.13-.85-2.27c1.47-.56,3-1.14,4.44-1.73l.91,2.25C127,684.23,125.45,684.82,124,685.38Zm9-3.61-1-2.23c1.44-.62,2.91-1.28,4.35-1.95l1,2.21C135.86,680.48,134.38,681.14,132.92,681.77Zm8.77-4-1.06-2.18c1.42-.69,2.85-1.42,4.26-2.14l1.12,2.16C144.58,676.3,143.13,677,141.69,677.73Zm8.58-4.43-1.17-2.13c1.4-.76,2.8-1.55,4.17-2.33l1.21,2.1C153.1,671.74,151.68,672.53,150.27,673.3Zm8.37-4.8-1.26-2.08c1.36-.83,2.72-1.67,4.05-2.52l1.31,2.05C161.39,666.81,160,667.67,158.64,668.5Zm8.14-5.18-1.34-2c1.31-.88,2.64-1.78,3.94-2.69l1.39,2C169.46,661.52,168.12,662.44,166.78,663.32Zm7.91-5.52-1.43-2c1.28-.93,2.56-1.89,3.82-2.86l1.47,1.93C177.28,655.89,176,656.86,174.69,657.8Zm7.66-5.86-1.52-1.9c1.23-1,2.47-2,3.69-3l1.56,1.86C184.85,649.91,183.6,650.94,182.35,651.94Zm7.4-6.19-1.6-1.83c1.19-1,2.39-2.12,3.55-3.18l1.64,1.79C192.16,643.61,191,644.69,189.75,645.75Zm7.11-6.52-1.68-1.75c1.15-1.09,2.29-2.22,3.41-3.34l1.72,1.72C199.18,637,198,638.13,196.86,639.23Zm6.83-6.81-1.76-1.68c1.1-1.15,2.19-2.32,3.26-3.48L207,628.9C205.9,630.08,204.79,631.26,203.69,632.42Zm6.51-7.11-1.82-1.6c1-1.19,2.09-2.41,3.1-3.62l1.86,1.56C212.32,622.87,211.26,624.11,210.2,625.31Zm6.2-7.39-1.89-1.52c1-1.23,2-2.49,3-3.75l1.92,1.48C218.41,615.41,217.4,616.68,216.4,617.92Zm5.88-7.64-2-1.44c.94-1.28,1.88-2.58,2.79-3.87l2,1.39C224.17,607.67,223.23,609,222.28,610.28Zm5.54-7.89-2-1.36c.87-1.3,1.75-2.64,2.61-4l2.05,1.31C229.6,599.71,228.71,601.07,227.82,602.39Zm5.21-8.12L231,593c.82-1.35,1.65-2.73,2.44-4.1l2.1,1.23C234.7,591.52,233.86,592.91,233,594.27Zm4.86-8.32-2.12-1.18c.77-1.38,1.54-2.79,2.28-4.19l2.15,1.14C239.44,583.13,238.67,584.56,237.89,586Zm4.52-8.51-2.16-1.1c.71-1.4,1.42-2.84,2.11-4.28l2.19,1.06C243.85,574.57,243.13,576,242.41,577.44Zm4.18-8.68-2.21-1c.66-1.44,1.31-2.9,2-4.36l2.23,1C247.91,565.83,247.25,567.31,246.59,568.76Zm3.85-8.84-2.25-.93c.6-1.46,1.2-3,1.78-4.43l2.26.89C251.65,556.94,251,558.44,250.44,559.92Z"/><path class="cls-4" d="M253.94,551l-2.28-.85c.28-.75.56-1.51.83-2.27l2.29.83Z"/><path class="cls-4" d="M111.91,694.63l-.5-2.38s.82-.17,2.3-.56l.62,2.35C112.79,694.44,112,694.62,111.91,694.63Z"/><path class="cls-4" d="M119,692.7l-.71-2.32c1.47-.46,3-1,4.53-1.48l.79,2.3C122,691.73,120.47,692.24,119,692.7Zm9.16-3.13-.85-2.28c1.48-.55,3-1.13,4.45-1.73l.91,2.26C131.15,688.42,129.64,689,128.14,689.57Zm9-3.62-1-2.23c1.44-.62,2.91-1.27,4.36-1.94l1,2.21C140.05,684.66,138.56,685.32,137.11,686Zm8.77-4-1.07-2.18c1.43-.7,2.86-1.42,4.27-2.15l1.11,2.16C148.77,680.49,147.32,681.22,145.88,681.92Zm8.57-4.43-1.16-2.14c1.4-.76,2.8-1.54,4.16-2.33l1.21,2.11C157.28,675.92,155.86,676.72,154.45,677.49Zm8.37-4.81-1.26-2.08c1.36-.82,2.73-1.67,4.06-2.51l1.3,2C165.58,671,164.2,671.85,162.82,672.68Zm8.15-5.17-1.35-2c1.32-.88,2.65-1.78,3.94-2.69l1.39,2C173.64,665.71,172.3,666.62,171,667.51Zm7.91-5.52-1.44-2c1.28-.94,2.57-1.9,3.82-2.86l1.48,1.93C181.47,660.07,180.17,661,178.88,662Zm7.66-5.87L185,654.23c1.23-1,2.47-2,3.69-3l1.56,1.86C189,654.1,187.78,655.13,186.54,656.12Zm7.39-6.19-1.6-1.83c1.2-1,2.39-2.11,3.56-3.18l1.64,1.79C196.35,647.79,195.14,648.87,193.93,649.93Zm7.12-6.51-1.68-1.76c1.14-1.09,2.29-2.21,3.41-3.33l1.72,1.72C203.36,641.18,202.2,642.32,201.05,643.42Zm6.82-6.82-1.75-1.68c1.09-1.14,2.19-2.31,3.26-3.48l1.79,1.64C210.09,634.26,209,635.45,207.87,636.6Zm6.52-7.11-1.83-1.6c1.05-1.19,2.09-2.41,3.11-3.62l1.86,1.56C216.5,627.06,215.44,628.29,214.39,629.49Zm6.2-7.38-1.89-1.52c1-1.23,2-2.49,2.94-3.75l1.93,1.48C222.59,619.59,221.59,620.87,220.59,622.11Zm5.88-7.65-2-1.44c.94-1.27,1.87-2.57,2.78-3.87l2,1.4C228.36,611.86,227.41,613.17,226.47,614.46Zm5.54-7.89-2-1.35c.88-1.31,1.76-2.65,2.62-4l2,1.31C233.78,603.9,232.9,605.25,232,606.57Zm5.2-8.11-2.07-1.27c.83-1.35,1.65-2.73,2.45-4.09l2.1,1.22C238.88,595.7,238.05,597.1,237.21,598.46Zm4.87-8.32L240,589c.77-1.38,1.54-2.79,2.28-4.19l2.15,1.14C243.63,587.32,242.85,588.74,242.08,590.14Zm4.52-8.52-2.17-1.09c.71-1.41,1.42-2.85,2.11-4.28l2.19,1C248,578.75,247.32,580.21,246.6,581.62Zm4.18-8.68-2.21-1c.65-1.43,1.31-2.9,1.94-4.36l2.23,1C252.1,570,251.44,571.5,250.78,572.94Zm3.84-8.84-2.25-.92c.61-1.46,1.21-2.95,1.78-4.43l2.27.88C255.83,561.13,255.23,562.63,254.62,564.1Z"/><path class="cls-4" d="M258.12,555.14l-2.27-.84c.27-.75.55-1.51.83-2.27l2.28.82C258.68,553.62,258.41,554.38,258.12,555.14Z"/><path class="cls-4" d="M83.46,666.17,83,663.8s2.86-.62,7.69-2.14l.73,2.32C86.42,665.54,83.58,666.15,83.46,666.17Z"/><path class="cls-4" d="M105.55,658.8l-.93-2.24c4.52-1.86,9.08-3.94,13.57-6.19l1.08,2.17C114.74,654.82,110.12,656.92,105.55,658.8Zm27-13.47-1.23-2.09c4.25-2.52,8.48-5.22,12.57-8l1.37,2C141.09,640.06,136.82,642.78,132.51,645.33Zm24.83-17.08-1.51-1.9c3.88-3.08,7.7-6.33,11.35-9.66l1.64,1.79C165.13,621.85,161.27,625.14,157.34,628.25ZM179.6,608l-1.75-1.68c3.41-3.57,6.75-7.32,9.92-11.12l1.87,1.55C186.43,600.55,183.05,604.33,179.6,608Zm19.29-23.15-2-1.42c2.89-4,5.7-8.15,8.34-12.36l2.06,1.3C204.64,576.57,201.81,580.77,198.89,584.8Zm16-25.49-2.13-1.16c2.34-4.32,4.59-8.8,6.7-13.32l2.2,1C219.57,550.42,217.29,555,214.92,559.31Z"/><path class="cls-4" d="M227.63,532l-2.26-.9c1-2.47,1.94-5,2.85-7.54l2.28.82C229.59,526.94,228.62,529.5,227.63,532Z"/><path class="cls-4" d="M96.51,679.23l-.5-2.38s2.86-.61,7.69-2.13l.73,2.32C99.48,678.59,96.63,679.21,96.51,679.23Z"/><path class="cls-4" d="M118.6,671.86l-.92-2.24c4.52-1.86,9.08-4,13.56-6.19l1.09,2.17C127.79,667.87,123.18,670,118.6,671.86Zm27-13.47-1.23-2.1c4.25-2.51,8.48-5.21,12.56-8l1.38,2C154.15,653.11,149.87,655.84,145.57,658.39Zm24.83-17.08-1.51-1.9c3.88-3.08,7.7-6.33,11.35-9.67l1.64,1.8C178.18,634.91,174.32,638.2,170.4,641.31ZM192.66,621l-1.76-1.67c3.42-3.58,6.76-7.32,9.93-11.13l1.87,1.56C199.49,613.61,196.11,617.39,192.66,621Zm19.28-23.14-2-1.42c2.89-4,5.69-8.15,8.34-12.36l2.06,1.29C217.7,589.63,214.87,593.83,211.94,597.86Zm16-25.49-2.14-1.16c2.35-4.32,4.6-8.8,6.7-13.32l2.21,1C232.62,563.48,230.35,568,228,572.37Z"/><path class="cls-4" d="M240.69,545.06l-2.26-.89c1-2.48,1.94-5,2.85-7.54l2.28.82C242.64,540,241.68,542.56,240.69,545.06Z"/><path class="cls-4" d="M559.1,630.71s30-27.77,87.33-22.83V619S607.47,611.83,559.1,630.71Z"/><path class="cls-4" d="M646.43,630.71s-32,1.37-49.33,17.08c0,0,46.77-13.45,57.71-8.54Z"/><path class="cls-4" d="M479.92,556.16s23.51-8.94,40.51-52H505.29S504.42,527.16,479.92,556.16Z"/><path class="cls-4" d="M402.41,499.66a53.09,53.09,0,0,0,17.48-22h7.79S418.9,494.16,402.41,499.66Z"/><path class="cls-4" d="M75,602.39s-3.59-91.15,100-93.65C175,508.74,100.94,524.54,75,602.39Z"/><path class="cls-4" d="M469.43,572.06s-72.1,156.56-249,137.33l28.35-27.47S370.43,703,469.43,572.06Z"/><path class="cls-4" d="M188.15,722h-38S349.57,852.62,563,709.39C563,709.39,315.65,802.45,188.15,722Z"/><path class="cls-4" d="M568.88,394.63c35,1.3,69.61-2.06,104.07-7.63,27.81-4.49,55.41-10.09,81.95-19.77,13.36-4.87,12-1.24,12.52-17.78.29-8.87-2.79-12-11.75-11.79-18.62.49-37.22,1.39-55.83,2.11-14.86.57-29.72,1.16-44.59,1.68-24.78.87-49.55,1.78-74.33,2.48q-23.52.66-47,.74c-35.27.11-70.53,0-105.8,0H369.76c-17.3,0-34.59.07-51.89,0a4.5,4.5,0,0,0-4,2c-5,6.62-5.72,16.5-1.77,23.6a4.92,4.92,0,0,0,4.34,2.92q28.28,2.19,56.53,4.61,56.11,4.69,112.22,9.46,29.66,2.55,59.26,5.55C552.56,393.68,560.71,394.23,568.88,394.63Z"/><path class="cls-4" d="M213.91,365a12.66,12.66,0,0,0,3.18-.12q.43-9.9.85-19.79c-6.36-.07-12.71-1.16-19.07-.29l-1.17-.31-31.24-.78c-.15,4.66-.28,9.33-.45,14,0,1-.2,2,1.34,1.2.27-.26.55-.53.83-.78l.74-.37-.36.74-.86.83c0,1.39-1.38,1.89-2,2.89,5.24,1.19,10.58.86,15.88.9l.71-17.5c1.55,5.18,0,10.37,1,15.5l.82-.35-.41.8c-.31.64-.63,1.27-.94,1.91,5.75-.23,11.57,2.06,17.25-.49C204.23,366.62,209.35,363.94,213.91,365Z"/><path class="cls-4" d="M308.85,367.82A23,23,0,0,1,310.51,348l-35.19-1.41c1.49,5.36-1.84,11.29,1.9,16.4a.93.93,0,0,1-.09.75c-1.92,3.11-.33,3.67,1.4,3.8h.09c.58,0,1.16,0,1.63.06,7.21.49,14.44.62,21.67,1C304.3,368.72,306.63,368.94,308.85,367.82Z"/><path class="cls-4" d="M98.85,341.09c-6-1.14-12.1-2.41-18.32-1.68-5,.59-7.5,3.83-7.7,10-.19,5.92,2,9.23,6.84,10.21,6.41,1.29,12.8.44,19.19-.27C98.78,353.25,100.19,347.17,98.85,341.09Z"/><path class="cls-4" d="M235.54,365.58l.81-19.75a109,109,0,0,0-17.42-.66q-.42,9.9-.83,19.81A46.52,46.52,0,0,0,235.54,365.58Z"/><path class="cls-4" d="M253.84,366.68a93.66,93.66,0,0,1,.84-20.49l-1.37.15c0,1.67-1.43,2.27-2.39,3.22l-.81.78-.22-.22.83-.79c-.06-1,.49-2.24-1.29-2.3-2.9-.12-5.82-.16-8.69-.52s-3.4.85-3.46,3.33c-.12,5.3-.5,10.6-.77,15.89C242.23,367.13,248,366.86,253.84,366.68Z"/><path class="cls-4" d="M148.83,361.5a43.6,43.6,0,0,0,15.94.48l.81-18.25a122.94,122.94,0,0,0-15.94-.6q-.24,6.89-.49,13.78c0,.91-.3,2,1.29,1.29l.75-.35-.4.76C150.76,360,149.41,360.48,148.83,361.5Z"/><path class="cls-4" d="M132.13,360.62a74.55,74.55,0,0,0,15.73.61q.39-9.06.79-18.1l-15.8-.49Z"/><path class="cls-4" d="M119.92,360.23l10.37.41c1.67-5.93.72-12.08,1.43-18.1a.39.39,0,0,0-.53,0l-1.9,0-4.51-.17c-1.54,2.07-3.67.7-5.52.91-1.21.14-2.55-.07-2.61,1.64-.12,3.8-.73,7.62-.09,11.34,1.59.27,1.53-2.12,2.61-1.39a2.51,2.51,0,0,1,1,3.44A5.49,5.49,0,0,0,119.92,360.23Z"/><path class="cls-2" d="M236.51,365.73c.27-5.29.65-10.59.77-15.89.06-2.48.68-3.69,3.46-3.33s5.79.4,8.69.52c1.78.06,1.23,1.32,1.29,2.3l-.83.79.22.22.81-.78c1-.95,2.4-1.55,2.39-3.22l1.37-.15c-5.23.11-18.33-.36-18.33-.36l-.81,19.75Z"/><path class="cls-2" d="M253.84,366.68l24.69.86c-1.73-.13-3.32-.69-1.4-3.8a.93.93,0,0,0,.09-.75c-3.74-5.11-.41-11-1.9-16.4,0,0-16.85-1.15-20.64-.4A93.66,93.66,0,0,0,253.84,366.68Z"/><path class="cls-2" d="M119.92,360.23a5.49,5.49,0,0,1,.27-1.94,2.51,2.51,0,0,0-1-3.44c-1.08-.73-1,1.66-2.61,1.39-.64-3.72,0-7.54.09-11.34.06-1.71,1.4-1.5,2.61-1.64,1.85-.21,4,1.16,5.52-.91-8.61-1-17.28-1-25.93-1.26,1.34,6.08-.07,12.16,0,18.24Z"/><path class="cls-2" d="M165.71,362.21c.61-1,1.94-1.5,2-2.89a4.87,4.87,0,0,0-.35-.42c-1.54.82-1.38-.19-1.34-1.2.17-4.66.3-9.33.45-14l-.87,0q-.41,9.12-.82,18.25Z"/><path class="cls-2" d="M148.65,343.13q-.41,9-.79,18.1l1,.27c.58-1,1.93-1.51,2-2.89-.11-.14-.23-.27-.35-.41-1.59.73-1.32-.38-1.29-1.29q.25-6.89.49-13.78Z"/><path class="cls-2" d="M218.1,365q.41-9.9.83-19.81l-1-.08q-.42,9.89-.85,19.79Z"/><path class="cls-2" d="M182.8,363.47c.31-.64.63-1.27.94-1.91-.14-.16-.27-.31-.41-.45-1-5.13.52-10.32-1-15.5l-.71,17.5Z"/><path class="cls-2" d="M130.29,360.64l1.84,0q.36-9,.73-18l-1.14-.1C131,348.56,132,354.71,130.29,360.64Z"/><path class="cls-2" d="M183.74,361.56l.41-.8-.82.35C183.47,361.25,183.6,361.4,183.74,361.56Z"/><path class="cls-2" d="M168.56,358.49l.36-.74-.74.37A2.67,2.67,0,0,0,168.56,358.49Z"/><path class="cls-2" d="M167.7,359.32l.86-.83a2.67,2.67,0,0,1-.38-.37c-.28.25-.56.52-.83.78A4.87,4.87,0,0,1,167.7,359.32Z"/><path class="cls-2" d="M150.79,358.61l.4-.76-.75.35C150.56,358.34,150.68,358.47,150.79,358.61Z"/><path class="cls-2" d="M357.4,365.31s252.92,23.11,336,.89Z"/><path class="cls-2" d="M250.11,350.34l.81-.78-.2-.23-.83.79Z"/></g></g></svg>